<?xml version="1.0" encoding="utf-8"?>
<!-- Generator: Adobe Illustrator 19.0.0, SVG Export Plug-In . SVG Version: 6.00 Build 0)  -->
<svg version="1.1" id="Layer_1" xmlns="http://www.w3.org/2000/svg" xmlns:xlink="http://www.w3.org/1999/xlink" x="0px" y="0px"
	 viewBox="0 0 504.1 792" style="enable-background:new 0 0 504.1 792;" xml:space="preserve">
<path id="XMLID_1267_" style="fill:#1A1A1A;stroke:#000000;stroke-width:0.6066;stroke-miterlimit:10;" d="M292.4,313.8
	c0.2,0.1-25.3,28.6-46.2,43.7c-0.1,0.1-0.3-0.1-0.2-0.2c2-3.1,12.5-15.8,43.9-43.5H292.4z"/>
<path id="XMLID_1265_" style="fill:#1A1A1A;stroke:#000000;stroke-width:0.6066;stroke-miterlimit:10;" d="M80.7,312.3
	c0,0,9.3,23.5,43.9,48.3c0,0-27-43.2-34.4-47.3C82.8,309.2,80.7,312.3,80.7,312.3z"/>
<polygon id="XMLID_1038_" style="fill:#1A1A1A;stroke:#000000;stroke-miterlimit:10;" points="115.5,444.5 128.7,447.9 128.7,436.6 
	"/>
<path id="XMLID_1029_" style="fill:#E8D8D7;stroke:#6B2432;stroke-width:0.7211;stroke-miterlimit:10;" d="M253.6,396.2
	c-0.3-0.3-0.3-0.7-0.1-1c0.8-1.5,3.1-5.3,5-4.5c1.6,0.7,3.1,2.2,4,3.2c0.4,0.4,0.3,1.1-0.2,1.4c-1.6,1-5.1,3.1-6.4,2.6
	C254.8,397.4,254,396.7,253.6,396.2z"/>
<path id="XMLID_1035_" style="fill:#E8D8D7;stroke:#6B2432;stroke-width:0.6208;stroke-miterlimit:10;" d="M251.8,367.7l18.8-31.4
	l-0.6-6.1l-26.9-112.1c0,0,11.2,16.2,17.9,30.7c6.7,14.5,31.9,74.7,32.7,78.6c0,0,0.7,7.6-8.2,16.1c-8.9,8.5-22,27.4-22.8,29.6
	c-0.7,2.1-2.9,8.7-2.9,8.7s-0.8,2.8-2.1,6.8c-1.3,4,2.9,8.6,0,9.1c-2.9,0.6-11.7-2.6-16.6-5.6c-5-3-2.7-5.8,0-10.3
	C243.8,377.4,251.8,367.7,251.8,367.7"/>
<path id="XMLID_1028_" style="fill:#E8D8D7;stroke:#6B2432;stroke-width:0.6385;stroke-miterlimit:10;" d="M249,368.1"/>
<path id="XMLID_1050_" style="stroke:#000000;stroke-width:1.101;stroke-miterlimit:10;" d="M180.3,739.9c0,0-0.7-2.8-3-3.3
	s-13,0.3-12,3.3S181.4,742,180.3,739.9z"/>
<path id="XMLID_1049_" style="fill:#E8D8D7;stroke:#6B2432;stroke-width:0.5431;stroke-miterlimit:10;" d="M166.2,742.8l-3.6-37.2
	l13.5,20.6c0,0,0.8,8,1.4,11.3c0.4,2.3,1.6,6.4,2.9,11.5C180.3,749,174.3,740,166.2,742.8z"/>
<path id="XMLID_997_" style="fill:#E8D8D7;stroke:#6B2432;stroke-width:0.5159;stroke-miterlimit:10;" d="M213.6,736.8l3.6-33.5
	l-13.5,18.6c0,0-0.8,7.2-1.4,10.2c-0.4,2.1-1.6,5.8-2.9,10.4C199.5,742.4,205.4,734.2,213.6,736.8z"/>
<path id="XMLID_977_" style="stroke:#000000;stroke-miterlimit:10;" d="M163.2,728.5h14.6l10.3-276.8l12.7,271.2l15.8-4.4
	c0,0,39.5-233.5,42.2-292.9l-139.2,3.1C132.3,482.6,163.2,728.5,163.2,728.5z"/>
<path id="XMLID_1144_" style="stroke:#000000;stroke-width:2;stroke-miterlimit:10;" d="M133.4,168.3c0,0,37.5-14.3,106.8,0.3
	l-1.8-26.6H128.2L133.4,168.3z"/>
<path id="XMLID_1143_" style="fill:#E8D8D7;stroke:#6B2432;stroke-width:0.6385;stroke-miterlimit:10;" d="M202.2,201.1
	c-2-1.8-2.6-20.1-2.6-20.1l-14.8-1l-15,1c0,0-0.7,18.2-2.7,20.1c-2,1.8-43.1,17.6-46.5,22.3c0,0,34.7,26,64.1,25.4
	c29.4,0.6,64.1-25.4,64.1-25.4C245.3,218.7,204.2,202.9,202.2,201.1z"/>
<path id="XMLID_1141_" style="fill:#28121A;stroke:#000000;stroke-width:0.6385;stroke-miterlimit:10;" d="M168,198.7
	c0,0,14.4,10.2,33.2,0l3,3.5c0,0-20.8,14-38.2-0.5L168,198.7z"/>
<path id="XMLID_1138_" style="opacity:0.7;fill:#808080;" d="M165,176.4c0,0,11.6,12.8,15.7,13.6c4.1,0.9,20.5-7.7,22.6-12.1
	C205.5,173.5,165,176.4,165,176.4z"/>
<path id="XMLID_1137_" style="fill:#E8D8D7;stroke:#6B2432;stroke-width:0.6385;stroke-miterlimit:10;" d="M233.8,105.2
	c-0.7-44.7-37.5-53.8-47.1-55.4c-1.5-0.3-3-0.3-4.6,0c-9.6,1.6-46.3,10.7-47,55.4c0,0.8-0.1,1.5-0.2,2.3c-1,6.7-5.7,42.8,11.6,58.3
	c14.1,12.6,28,17.5,34.3,19.2c2.3,0.6,4.8,0.6,7.1,0c6.3-1.7,20.2-6.6,34.3-19.3c17.3-15.5,12.7-51.6,11.7-58.3
	C233.9,106.7,233.8,105.9,233.8,105.2z"/>
<path id="XMLID_1136_" style="fill:#666666;" d="M176.5,134.1c1.8-0.4,6.4-1.1,13.9,0c0.6,0.1,0.8,0.5,0.4,0.7
	c-1.5,0.9-4.4,2.6-6,3.1c-2.1,0.7-4.7-0.1-8.6-3.2C175.9,134.5,176,134.2,176.5,134.1z"/>
<path id="XMLID_1135_" d="M198.3,96.6c0,0,4.3-4.3,10.6-3.6c6.3,0.6,13.5,2.4,15.8,2.1s-11.5,2.3-14.2,2
	C207.9,96.8,198.3,96.6,198.3,96.6z"/>
<path id="XMLID_1134_" d="M168,100.9c0,0-3.6-4.9-9.9-5.2s-13.7,0.3-15.9-0.4s11,4,13.7,4.1S168,100.9,168,100.9z"/>
<path id="XMLID_1133_" style="fill:#FFFFFF;stroke:#000000;stroke-width:0.6336;stroke-miterlimit:10;" d="M170,115.8
	c0-0.4-0.1-0.8-0.3-1.1c-1.3-2.8-7.8-14.7-24.2-3.2C127.1,124.3,170.1,133.5,170,115.8z"/>
<path id="XMLID_1132_" style="fill:#FFFFFF;stroke:#000000;stroke-width:0.6336;stroke-miterlimit:10;" d="M196.5,116.3
	c0-0.7,0.1-1.4,0.4-2c1.6-3.4,8.3-13.9,24.1-2.8C239.1,124.2,197.2,133.3,196.5,116.3z"/>
<g id="XMLID_1129_">
	<path id="XMLID_40_" d="M169.9,115.4c0,0-0.3-0.5-1-1.4c-0.6-0.8-1.6-2-2.8-3.2c-0.6-0.6-1.3-1.2-2.1-1.7c-0.8-0.5-1.7-1-2.6-1.3
		c-1.9-0.7-4-0.7-6.1-0.1c-1,0.3-2,0.7-3,1.2c-0.5,0.2-1,0.6-1.4,0.8c-0.5,0.3-1,0.6-1.4,0.9c-0.9,0.6-1.9,1.2-2.7,1.7
		c-0.9,0.6-1.7,1.1-2.4,1.6c-0.7,0.5-1.4,1-1.8,1.4c-0.1,0.1-0.1,0.1-0.1,0.2c0,0.1,0,0.1-0.2,0.3c-0.2,0.2-0.4,0.3-0.5,0.3
		c-0.1,0-0.2,0-0.3,0c-0.3,0-0.6,0-0.9,0.1c-1.1,0.1-1.7,0.1-1.7,0.1s0.6-0.3,1.5-0.6c0.2-0.1,0.5-0.2,0.8-0.3
		c0.1,0,0.1-0.1,0.2-0.1c0.1,0,0-0.1,0,0c0,0,0-0.1,0.1-0.2c0-0.1,0.1-0.2,0.1-0.3c0.4-0.8,1-1.4,1.6-2.1c1.3-1.3,2.9-2.7,4.8-4
		c0.5-0.3,0.9-0.7,1.4-1c0.5-0.3,1-0.7,1.6-1c1.1-0.6,2.3-1.2,3.6-1.5c1.3-0.4,2.6-0.5,4-0.5c1.3,0.1,2.6,0.4,3.8,0.9
		c1.2,0.5,2.1,1.2,3,2c0.8,0.7,1.5,1.5,2.1,2.3c1.1,1.5,1.7,3,2.1,4C169.8,114.8,169.9,115.4,169.9,115.4z"/>
</g>
<g id="XMLID_1126_">
	<path id="XMLID_38_" d="M196.4,115.4c0,0,0.1-0.6,0.5-1.6c0.4-1,1-2.4,2.1-4c0.6-0.8,1.2-1.6,2.1-2.3c0.8-0.7,1.8-1.4,3-2
		c1.1-0.5,2.4-0.9,3.8-0.9c1.3-0.1,2.7,0.1,4,0.5c1.3,0.4,2.5,0.9,3.6,1.5c0.6,0.3,1.1,0.7,1.6,1c0.5,0.3,0.9,0.7,1.4,1
		c1.8,1.4,3.5,2.7,4.8,4c0.7,0.7,1.2,1.3,1.6,2.1c0.1,0.1,0.1,0.2,0.1,0.3c0,0.1,0.1,0.2,0.1,0.2c-0.1-0.1-0.1-0.1,0,0
		c0,0,0.1,0.1,0.2,0.1c0.3,0.1,0.6,0.2,0.8,0.3c1,0.4,1.5,0.6,1.5,0.6s-0.6,0-1.7-0.1c-0.3,0-0.6,0-0.9-0.1c-0.1,0-0.2,0-0.3,0
		c-0.1,0-0.3-0.1-0.5-0.3c-0.1-0.2-0.1-0.2-0.2-0.3c0-0.1-0.1-0.1-0.1-0.2c-0.4-0.4-1.1-0.9-1.8-1.4c-0.7-0.5-1.5-1-2.4-1.6
		c-0.9-0.5-1.8-1.1-2.7-1.7c-0.5-0.3-1-0.6-1.4-0.9c-0.5-0.3-0.9-0.6-1.4-0.8c-1-0.5-2-0.9-3-1.2c-2.1-0.6-4.2-0.6-6.1,0.1
		c-0.9,0.3-1.8,0.8-2.6,1.3c-0.8,0.5-1.5,1.1-2.1,1.7c-1.2,1.2-2.2,2.4-2.8,3.2C196.8,114.8,196.4,115.4,196.4,115.4z"/>
</g>
<path id="XMLID_1125_" style="fill:#1A1A1A;stroke:#000000;stroke-width:0.706;stroke-miterlimit:10;" d="M217.3,116.4
	c0.1,4.9-2.7,8.4-6.1,8.5c-4.3,0.2-7.8-2.4-8.1-7.7c-0.2-4.2,1.8-9.4,5.6-9.4C212.2,107.8,217.2,112.2,217.3,116.4z"/>
<circle id="XMLID_1124_" style="fill:#FFFFFF;" cx="215.9" cy="112.5" r="2.1"/>
<path id="XMLID_1123_" style="fill:#1A1A1A;stroke:#000000;stroke-width:0.7065;stroke-miterlimit:10;" d="M149,116.4
	c-0.1,4.9,2.7,8.4,6.1,8.5c4.3,0.2,7.8-2.4,8.1-7.7c0.2-4.2-1.8-9.4-5.7-9.4C154.2,107.8,149.1,112.2,149,116.4z"/>
<circle id="XMLID_1122_" style="fill:#FFFFFF;" cx="161.3" cy="112.5" r="2.1"/>
<g id="XMLID_1116_">
	<path id="XMLID_1121_" style="fill:#28121A;stroke:#000000;stroke-width:0.5397;stroke-miterlimit:10;" d="M162.6,149.9
		c0,0-0.6,1.4,3.3,1.3c3.9-0.2,36.6-0.1,38.3,0c1.6,0.1,1.4-1.3,1.4-1.3s-1.6,2.1-2.4,2.7s-2,4.6-5.9,6c-3.9,1.4-24.8,3.3-29.7-2.7
		C162.6,149.9,162.6,149.9,162.6,149.9z"/>
	<path id="XMLID_1120_" style="fill:#FFFFFF;" d="M166.6,151.1c0,0-1.3,2.4,1.5,2.8c2.7,0.4,10.9,2.8,32.1,0.4
		c0.5-0.1,0.9-0.5,0.8-0.9c-0.2-0.4-0.2-1.1-0.1-2.3L166.6,151.1z"/>
	<path id="XMLID_1119_" style="fill:#FFFFFF;" d="M167.9,155.7c-0.2-0.2-0.4-0.3-0.5-0.5c-0.2-0.4-0.5-0.9,0.3-0.9
		c1.1,0,32.6,0.1,33.1,0.4c0.5,0.4-0.5,2.2-1.1,2.5c0,0-13,5.8-28.6,0.7c-0.2-0.1-0.5-0.2-0.6-0.3L167.9,155.7z"/>
	<path id="XMLID_1118_" style="fill:#631D1D;stroke:#000000;stroke-width:0.5397;stroke-miterlimit:10;" d="M166.6,151.1
		c0,0,5.6-2.8,8.2-3c2.6-0.2,9.2,0.8,9.2,0.8s6.7-1.5,9-0.8c2.2,0.7,7.7,3,7.7,3S184.8,153.4,166.6,151.1z"/>
	<path id="XMLID_1117_" style="fill:#631D1D;stroke:#000000;stroke-width:0.5397;stroke-miterlimit:10;" d="M168,156.4
		c0,0,0.9,2,9,2.8c8,0.8,19.6-0.5,22.7-2.1c0,0-0.4,1.9-2.4,2.9c-2,1-6.1,3.2-11.8,3.2c-5.7,0-12.5-1.2-15-4
		C168,156.4,168,156.4,168,156.4z"/>
</g>
<ellipse id="XMLID_1115_" style="stroke:#000000;stroke-width:0.7065;stroke-miterlimit:10;" cx="156.2" cy="115.9" rx="2.4" ry="3.8"/>
<ellipse id="XMLID_1114_" style="stroke:#000000;stroke-width:0.7065;stroke-miterlimit:10;" cx="210.4" cy="115.9" rx="2.4" ry="3.8"/>
<path id="XMLID_1113_" style="opacity:0.3;" d="M138.1,111c0,0-0.1-39.1,64.2-52.1C253.3,48.5,131,66,131,66l-6.3,41.4
	C124.7,107.5,129.2,143.7,138.1,111z"/>
<path id="XMLID_1112_" style="opacity:0.3;" d="M234.7,114.8c0,0-8.4,44.5-10.8,50.6c0,0,5.8-6.2,11.5-19.9
	C241.1,131.7,234.7,114.8,234.7,114.8z"/>
<path id="XMLID_1109_" style="fill:#6B2432;stroke:#000000;stroke-width:0.5334;stroke-miterlimit:10;" d="M224.9,44.1
	c0,0-14.6-21.7-30.9-22.7s-27.3-2.2-45,8.6s-32.3,29.4-37.1,46s-16,39.9-8.3,74.7s53.6,47.6,53.6,47.6s-25.5-39.4-22.3-67.9
	s-0.9-43.9,28.4-59.8s47.6-9.8,47.6-9.8s12.2,4.7,16.5,34.7c4.3,30,11.2,37-9.4,102.8c0,0,41.7-23,41.1-52.7s-1.6-74.1-15.6-92.9
	C243.5,52.7,234.3,40.2,224.9,44.1z"/>
<g id="XMLID_1104_">
	<path id="XMLID_36_" style="fill:#333333;" d="M167.4,44.3c0,0-0.2,0-0.5,0.1c-0.4,0.1-0.9,0.2-1.5,0.4c-0.6,0.2-1.4,0.4-2.3,0.7
		c-0.9,0.3-1.8,0.7-2.9,1.2c-0.5,0.2-1,0.5-1.6,0.8c-0.3,0.1-0.6,0.3-0.8,0.4c-0.3,0.2-0.6,0.3-0.8,0.5c-0.6,0.3-1.1,0.7-1.7,1.1
		c-0.6,0.4-1.1,0.8-1.7,1.2c-0.6,0.4-1.2,0.8-1.7,1.3c-0.6,0.5-1.1,0.9-1.7,1.4c-0.5,0.5-1.1,1-1.6,1.6c-0.5,0.5-1.1,1-1.6,1.6
		l-1.5,1.7l-0.8,0.8l-0.7,0.9c-0.5,0.6-0.9,1.2-1.4,1.8c-0.5,0.6-0.9,1.2-1.3,1.8c-0.8,1.2-1.5,2.4-2.3,3.5
		c-0.6,1.2-1.2,2.3-1.8,3.3c-0.3,0.5-0.5,1-0.8,1.5c-0.2,0.5-0.4,0.9-0.6,1.4c-0.4,0.9-0.7,1.6-1,2.2c-0.6,1.2-0.9,1.9-0.9,1.9
		s0.3-0.7,0.7-2c0.2-0.6,0.5-1.4,0.9-2.3c0.2-0.4,0.3-0.9,0.5-1.4c0.2-0.5,0.5-1,0.7-1.5c0.5-1,1.1-2.2,1.7-3.4
		c0.7-1.2,1.4-2.4,2.2-3.6c0.4-0.6,0.8-1.2,1.3-1.8c0.4-0.6,0.9-1.2,1.4-1.8l0.7-0.9l0.8-0.9l1.5-1.8c0.5-0.6,1.1-1.1,1.7-1.6
		c0.6-0.5,1.1-1.1,1.7-1.6c0.6-0.5,1.2-1,1.8-1.4c0.6-0.5,1.2-0.9,1.8-1.3c0.6-0.4,1.2-0.8,1.8-1.2c0.6-0.4,1.2-0.7,1.8-1
		c0.3-0.2,0.6-0.3,0.9-0.5c0.3-0.1,0.6-0.3,0.9-0.4c0.6-0.3,1.1-0.5,1.7-0.7c1.1-0.4,2.1-0.8,3-1c0.9-0.3,1.7-0.4,2.4-0.6
		C166.6,44.3,167.4,44.3,167.4,44.3z"/>
</g>
<g id="XMLID_1101_">
	<path id="XMLID_34_" style="fill:#333333;" d="M174.4,33.8c0,0-0.2-0.1-0.5-0.1c-0.3-0.1-0.8-0.2-1.4-0.3c-0.6-0.1-1.3-0.2-2.1-0.3
		c-0.4,0-0.9-0.1-1.3-0.1c-0.5,0-1,0-1.5,0c-0.5,0-1,0-1.6,0c-0.5,0-1.1,0-1.7,0.1c-1.2,0.2-2.4,0.3-3.6,0.6
		c-0.6,0.1-1.3,0.2-1.9,0.4c-0.6,0.2-1.3,0.4-1.9,0.6c-0.6,0.2-1.3,0.4-1.9,0.7l-1.9,0.8c-1.2,0.6-2.4,1.2-3.6,1.9
		c-1.1,0.7-2.3,1.4-3.3,2.1c-1,0.8-2,1.5-2.9,2.2c-0.9,0.8-1.7,1.5-2.4,2.2c-0.4,0.3-0.7,0.7-1.1,1c-0.3,0.3-0.6,0.7-0.9,1
		c-0.6,0.6-1.1,1.2-1.5,1.6c-0.8,0.9-1.3,1.4-1.3,1.4s0.4-0.6,1.1-1.5c0.4-0.5,0.8-1.1,1.3-1.7c0.3-0.3,0.5-0.7,0.8-1.1
		c0.3-0.3,0.7-0.7,1-1.1c0.7-0.7,1.5-1.6,2.3-2.4c0.9-0.8,1.9-1.6,2.9-2.4c1-0.8,2.2-1.5,3.3-2.3c1.2-0.7,2.4-1.3,3.7-2
		c0.6-0.3,1.3-0.5,1.9-0.8c0.6-0.2,1.3-0.5,2-0.7c0.7-0.2,1.3-0.4,2-0.5c0.6-0.2,1.3-0.3,2-0.4c1.3-0.3,2.5-0.3,3.7-0.4
		c0.6,0,1.2,0,1.7,0c0.6,0,1.1,0,1.6,0.1c0.5,0,1,0.1,1.5,0.1c0.5,0.1,0.9,0.2,1.3,0.2c0.8,0.1,1.5,0.3,2.1,0.5
		C173.8,33.6,174.4,33.8,174.4,33.8z"/>
</g>
<g id="XMLID_1098_">
	<path id="XMLID_32_" style="fill:#333333;" d="M208.9,51.3c0,0-0.6-0.4-1.4-1.2c-0.8-0.7-1.8-1.8-2.8-2.9c-1-1.1-1.8-2.3-2.5-3.2
		c-0.6-0.9-1-1.6-1-1.6s0.6,0.4,1.4,1.2c0.8,0.7,1.8,1.8,2.8,2.9c1,1.1,1.8,2.3,2.5,3.2C208.5,50.6,208.9,51.3,208.9,51.3z"/>
</g>
<g id="XMLID_1095_">
	<path id="XMLID_30_" style="fill:#333333;" d="M220.6,51.3c0,0,0.1,0,0.3,0c0.2,0,0.5,0.1,0.9,0.3c0.7,0.4,1.7,1.2,2.7,2.3
		c2.1,2.3,4.6,6,7,10.7c2.3,4.8,4.6,10.5,6.3,16.9c1.8,6.4,3.1,13.4,3.9,20.4c0.8,7,1.1,14.1,1.1,20.7c0,3.3-0.1,6.5-0.3,9.5
		c-0.2,3-0.4,5.9-0.6,8.5c-0.2,2.6-0.5,5-0.8,7.2c-0.3,2.1-0.5,4-0.8,5.5c-0.2,1.5-0.4,2.7-0.6,3.5c-0.1,0.8-0.2,1.2-0.2,1.2
		s0.2-1.7,0.6-4.8c0.4-3.1,0.8-7.4,1.2-12.7c0.4-5.3,0.6-11.4,0.6-18c0-6.6-0.4-13.6-1.2-20.6c-0.8-7-2-13.9-3.7-20.2
		c-0.9-3.2-1.8-6.2-2.8-9.1c-1-2.8-2.1-5.5-3.2-7.9c-2.2-4.8-4.6-8.5-6.6-10.8c-1-1.2-1.9-2-2.6-2.4c-0.4-0.2-0.6-0.3-0.9-0.4
		C220.7,51.3,220.6,51.3,220.6,51.3z"/>
</g>
<path id="XMLID_1093_" style="fill:none;stroke:#E4992C;stroke-width:0.3765;stroke-miterlimit:10;" d="M232.4,118.8
	c0,10-8.8,20.3-19.6,20.3c-10.8,0-19.6-10.3-19.6-20.3c0-10,8.8-18.1,19.6-18.1C223.6,100.7,232.4,108.8,232.4,118.8z"/>
<path id="XMLID_1092_" style="fill:none;stroke:#E4992C;stroke-width:0.3765;stroke-miterlimit:10;" d="M134.8,118.8
	c0,10,8.8,20.3,19.6,20.3c10.8,0,19.6-10.3,19.6-20.3c0-10-8.8-18.1-19.6-18.1C143.6,100.7,134.8,108.8,134.8,118.8z"/>
<linearGradient id="XMLID_67_" gradientUnits="userSpaceOnUse" x1="109.7663" y1="114.0078" x2="210.5176" y2="114.0078">
	<stop  offset="0" style="stop-color:#6B2432"/>
	<stop  offset="3.734273e-002" style="stop-color:#5C1F2B"/>
	<stop  offset="0.12" style="stop-color:#3F151E"/>
	<stop  offset="0.2132" style="stop-color:#280D13"/>
	<stop  offset="0.3195" style="stop-color:#16070A"/>
	<stop  offset="0.4469" style="stop-color:#090304"/>
	<stop  offset="0.6165" style="stop-color:#020101"/>
	<stop  offset="1" style="stop-color:#000000"/>
</linearGradient>
<path id="XMLID_1055_" style="opacity:0.2;fill:url(#XMLID_67_);" d="M210.5,60.5c0,0-53.1-40.7-79.6,12.9s-24.3,71.8-14,85.2
	c10.2,13.4,31.9,23.6,31.9,23.6S119,121,144.5,86.2S210.5,60.5,210.5,60.5z"/>
<path id="XMLID_1054_" style="opacity:0.3;fill:#1A1A1A;" d="M213,56.4c0,0-7.8-35.9-41.2-35.1c0,0,24.2-0.7,30.6,2.6
	c6.4,3.2,16.8,9.6,22.4,20.2L213,56.4z"/>
<g id="XMLID_1_" style="opacity:0.54;">
	<g id="XMLID_1058_" style="opacity:0.42;">
		
			<image style="overflow:visible;" width="397" height="375" id="XMLID_54_" xlink:href="3ED8ADAE.png"  transform="matrix(0.24 0 0 0.24 173.2936 90.7941)">
		</image>
	</g>
</g>
<g id="XMLID_2_" style="opacity:0.54;">
	<g id="XMLID_72_" style="opacity:0.42;">
		
			<image style="overflow:visible;" width="397" height="375" id="XMLID_55_" xlink:href="3ED8ADB2.png"  transform="matrix(0.24 0 0 0.24 97.3876 90.7941)">
		</image>
	</g>
</g>
<g id="XMLID_15_">
	<path id="XMLID_1091_" style="fill:#F0E87A;stroke:#42210B;stroke-width:0.1336;stroke-miterlimit:10;" d="M175.5,118.4
		c0,0,7.1-4.6,15.1,0v-1c-8-4.6-15.1,0-15.1,0V118.4z"/>
	<path id="XMLID_1090_" style="fill:#42210B;" d="M234.8,122.3l1.4-0.3c0.5-0.1,1-0.5,1-1v-7.1c0-0.4-0.3-0.9-0.8-1.1
		c-1.9-1-4.4-3.8-4.4-3.8L234.8,122.3z"/>
	<g id="XMLID_1084_">
		<path id="XMLID_1086_" style="fill:#42210B;" d="M213,99.6c-12.3,0-22.2,8.6-22.2,19.2c0,10.6,10,21.4,22.3,21.4
			c12.3,0,22.2-10.8,22.2-21.4C235.2,108.2,225.3,99.6,213,99.6z M212.8,139.1c-10.8,0-19.6-10.3-19.6-20.3c0-10,8.8-18.1,19.6-18.1
			c10.8,0,19.6,8.1,19.6,18.1C232.4,128.9,223.7,139.1,212.8,139.1z"/>
		<path id="XMLID_1085_" style="opacity:5.000000e-002;fill:#42210B;" d="M212.8,100.7c-10.8,0-19.6,8.1-19.6,18.1
			c0,10,8.8,20.3,19.6,20.3c10.8,0,19.6-10.3,19.6-20.3C232.4,108.8,223.6,100.7,212.8,100.7z"/>
	</g>
	<g id="XMLID_1079_">
		<path id="XMLID_1081_" style="fill:#42210B;" d="M154.2,99.6c-12.3,0-22.3,8.6-22.3,19.1c0,10.6,10,21.4,22.2,21.4
			c12.3,0,22.3-10.8,22.3-21.4C176.5,108.2,166.5,99.6,154.2,99.6z M154.4,139.1c-10.8,0-19.6-10.3-19.6-20.3
			c0-10,8.8-18.1,19.6-18.1c10.8,0,19.6,8.1,19.6,18.1C174,128.9,165.2,139.1,154.4,139.1z"/>
		<path id="XMLID_1080_" style="opacity:5.000000e-002;fill:#42210B;" d="M154.4,100.7c-10.8,0-19.6,8.1-19.6,18.1
			c0,10,8.8,20.3,19.6,20.3c10.8,0,19.6-10.3,19.6-20.3C174,108.8,165.2,100.7,154.4,100.7z"/>
	</g>
	<ellipse id="XMLID_1078_" style="fill:#4D4D4D;" cx="192" cy="117.9" rx="0.5" ry="0.5"/>
	<ellipse id="XMLID_1060_" style="fill:#4D4D4D;" cx="175.3" cy="117.9" rx="0.5" ry="0.5"/>
	<path id="XMLID_1089_" style="fill:#42210B;" d="M132.2,122.3l-1.7-0.3c-0.5-0.1-1.3-0.5-1.3-1v-7.1c0-0.4,0.7-0.9,1.1-1.1
		c1.9-1,4.6-3.8,4.6-3.8L132.2,122.3z"/>
</g>
<path id="XMLID_1477_" style="opacity:0.1;" d="M449.8,753c0.3,9.2-32.7,18.3-73.7,20.2s-74.4-3.9-74.7-13.1
	c-0.3-9.2,32.7-18.3,73.7-20.2S449.5,743.8,449.8,753z"/>
<path id="XMLID_1036_" style="opacity:0.1;" d="M273.1,752.4c0.7,11.3-34.8,23.3-79.2,26.8c-44.4,3.5-80.9-2.9-81.6-14.2
	c-0.7-11.3,34.8-23.3,79.2-26.8C235.9,734.7,272.4,741,273.1,752.4z"/>
<path id="XMLID_1476_" d="M414.3,596.7c-5-17.2-16.8-37.4-27.9-40.2l0,0c0,0-1.3-0.5-4-0.9c-3.1-0.6-5-0.6-5-0.6l0,0.2
	c-9-0.3-25.9,4.6-36.5,17.7c-6.9,8.5-9.6,19.8-14.7,35.7c-1.3,4.1-6.5,13.7-7.8,18.1c-10.7,36.5-16.3,75.5-16.8,89.6
	c0,0-2.1,35.8,31.3,42.7l0,0c3.6,0.6,3.1,0.6,4.3,0.8c1.9,0.4,4.2,0.8,6.2,1.1c0.1,0,0.5,0.1,0.6,0.1c0.1,0,0.1,0,0.2,0
	c63.3,10.7,98.6,1.2,105.2-19.3c3.2-9.8,11.3-30.6,0.7-57.1c-7.9-19.8-18.5-37.6-26.7-55.3C417.6,616.5,416,602.7,414.3,596.7z"/>
<path id="XMLID_1474_" d="M388.8,560.3c0,0,24.1-3.7,30.4-3S405.1,593,405.1,593L388.8,560.3z"/>
<path id="XMLID_1473_" d="M367.1,558.1c0,0-16.8-12-22-13.8c-5.1-1.9-4.3,32.7-4.3,32.7L367.1,558.1z"/>
<g id="XMLID_1469_">
	<g id="XMLID_1472_">
		<line id="XMLID_28_" style="fill:#B1B1B1;" x1="399.6" y1="590.7" x2="426.9" y2="586.9"/>
		<polygon id="XMLID_27_" style="fill:#FFFFFF;" points="399.6,590.6 426.9,586.9 399.6,590.9 		"/>
	</g>
	<g id="XMLID_1471_">
		<line id="XMLID_25_" style="fill:#B1B1B1;" x1="400" y1="593" x2="441.7" y2="594.8"/>
		<polygon id="XMLID_24_" style="fill:#FFFFFF;" points="400,592.9 441.7,594.8 400,593.1 		"/>
	</g>
	<g id="XMLID_1470_">
		<line id="XMLID_22_" style="fill:#B1B1B1;" x1="399.8" y1="596.6" x2="428" y2="601.5"/>
		<polygon id="XMLID_21_" style="fill:#FFFFFF;" points="399.8,596.5 428,601.5 399.8,596.7 		"/>
	</g>
</g>
<g id="XMLID_1461_">
	<g id="XMLID_1468_">
		<line id="XMLID_19_" style="fill:#B1B1B1;" x1="342.6" y1="581.9" x2="318.4" y2="569.4"/>
		<polygon id="XMLID_17_" style="fill:#FFFFFF;" points="342.6,582 318.4,569.4 342.7,581.8 		"/>
	</g>
	<g id="XMLID_1465_">
		<line id="XMLID_14_" style="fill:#B1B1B1;" x1="341.5" y1="583.9" x2="301.6" y2="571.9"/>
		<polygon id="XMLID_13_" style="fill:#FFFFFF;" points="341.5,584 301.6,571.9 341.5,583.8 		"/>
	</g>
	<g id="XMLID_1462_">
		<line id="XMLID_11_" style="fill:#B1B1B1;" x1="340.3" y1="587.4" x2="312" y2="582.7"/>
		<polygon id="XMLID_10_" style="fill:#FFFFFF;" points="340.3,587.5 312,582.7 340.4,587.3 		"/>
	</g>
</g>
<path id="XMLID_1458_" d="M433,725.3c0,0,30.4-4.9,33.4-20.2c3-15.3-17.5-1.1-10.2-11.9c0,0,7-7.3,23-7.3s-0.6,22.9-6.4,27.3
	s-39.6,21.3-39.6,21.3L433,725.3z"/>
<path id="XMLID_1457_" style="fill:#FFFFFF;" d="M390.4,579.7c-0.5,4.1-3.5,6.8-7.5,6.4s-6.2-4.4-5.7-8.5c0.5-4.1,3-6.5,6.9-6
	c2,0.2,3.7,1.2,4.8,2.7C390,575.8,390.6,577.7,390.4,579.7z"/>
<path id="XMLID_1454_" style="fill:#FFFFFF;" d="M351.2,573.3c-0.8,4,1.1,7.5,5,8.3c3.9,0.7,7.4-2.4,8.2-6.4c0.8-4-0.7-7-4.6-7.8
	c-2-0.4-3.9,0.1-5.5,1.2C352.8,569.7,351.7,571.3,351.2,573.3z"/>
<g id="XMLID_994_">
	<path id="XMLID_1451_" d="M382.5,575.2c1.5,1.1,1.8,3.1,0.7,4.5c-1.1,1.4-3.3,1.7-4.8,0.7s-1.8-3.1-0.7-4.5
		C378.8,574.4,381,574.1,382.5,575.2z"/>
	<path id="XMLID_1450_" style="fill:#FFFFFF;" d="M379.4,576.3c0.3,0.2,0.4,0.7,0.1,1s-0.7,0.4-1,0.1c-0.3-0.2-0.4-0.7-0.1-1
		S379.1,576,379.4,576.3z"/>
</g>
<g id="XMLID_991_">
	<path id="XMLID_993_" d="M356.8,570.9c1.5,1.1,1.8,3.1,0.7,4.5c-1.1,1.4-3.3,1.7-4.8,0.7s-1.8-3.1-0.7-4.5S355.3,569.8,356.8,570.9
		z"/>
	<path id="XMLID_992_" style="fill:#FFFFFF;" d="M353.8,571.9c0.3,0.2,0.4,0.7,0.1,1s-0.7,0.4-1,0.1c-0.3-0.2-0.4-0.7-0.1-1
		S353.5,571.7,353.8,571.9z"/>
</g>
<path id="XMLID_986_" style="fill:#FF7BAA;" d="M363.8,590l-2.5-3.5c-0.6-0.8,0.1-1.9,1.1-1.7l6.2,1c1,0.2,1.3,1.4,0.5,2l-3.6,2.4
	C364.9,590.6,364.1,590.5,363.8,590z"/>
<path id="XMLID_985_" style="fill:none;stroke:#FF7BAA;stroke-width:0.8939;stroke-miterlimit:10;" d="M370.2,593.2
	c-2.8,4.3-6.1-1-6.1-1l0.7-3.5l-0.7,3.5c0,0-4.5,4-5.5-0.9"/>
<path id="XMLID_18_" style="opacity:0.66;fill:#FF7BAA;" d="M355.3,526.3c-2.7-11.2-3.5-3-4.3-0.1l-0.2-0.2c0,0-10.7,2.3-0.5,6.3
	c3.5,1.4,5.3,1.9,6.1,2C356.8,535.3,358.2,538.3,355.3,526.3z"/>
<path id="XMLID_944_" style="fill:#CC879A;stroke:#FF7BAA;stroke-width:0.4604;stroke-miterlimit:10;" d="M367.7,595.1l-3.7,3.6
	c-0.7,1-2.7-1.6-3-2.9l0.7-2.2l2.1-1.1L367.7,595.1z"/>
<path id="XMLID_948_" style="stroke:#4D4D4D;stroke-width:0.5913;stroke-miterlimit:10;" d="M335.8,614.8l-39.1-33.6
	c0,0,10.5-5.2,3.2-7.9c-7.4-2.7-8.2-2.2-8.5,0.6s-0.1,2.8-0.1,2.8s-3.8-5.2-8.4-1.9c-4.6,3.3-2.3,9.9,1,9c0,0-5.4,3.2-1.9,6.2
	c3.5,3,7.8,7.2,8.9,3.2s1.2-4,1.2-4l26.2,42.5"/>
<g id="XMLID_113_">
	<path id="XMLID_949_" style="stroke:#4D4D4D;stroke-width:0.5913;stroke-miterlimit:10;" d="M373,758.6c0,0,5.5,0.9,6.7,3.5
		c1.3,2.8-1.2,4.3-2.3,5.2c-1.1,0.9-2.2,0.9-2.2,0.9"/>
	<path id="XMLID_1460_" style="stroke:#4D4D4D;stroke-width:0.5739;stroke-miterlimit:10;" d="M381.8,726.7c0,0-12.1,25.4-12.9,29.4
		c0,0,13.4,1.2,6.3,12.1c0,0-12.8,1.7-17.6-2.3l2.1-44.8"/>
	<path id="XMLID_908_" style="stroke:#4D4D4D;stroke-width:0.5913;stroke-miterlimit:10;" d="M368.9,760.4c0,0,3.3,0.7,3.3,2.7
		c0,2-1.7,5.4-1.7,5.4"/>
</g>
<path id="XMLID_86_" style="stroke:#4D4D4D;stroke-width:0.4773;stroke-miterlimit:10;" d="M422.7,763.4c0,0-6.2-0.6-4.5-3.9
	c1.7-3.3,4.5-3.6,4.5-3.6s3.6,2.5,3.8,3.7s-4.5-7,0-6.4s6.1,0.5,6.6,2.7c0.5,2.2,0,3.6,0,3.6s-1-7.5,1.7-6.3c2.7,1.2,3.2,2.8,2.4,5
	c-0.7,2.2-2.4,3.8-2.4,3.8L422.7,763.4z"/>
<path id="XMLID_902_" style="stroke:#4D4D4D;stroke-width:0.5913;stroke-miterlimit:10;" d="M451.2,688.7"/>
<path id="XMLID_333_" style="stroke:#4D4D4D;stroke-width:0.5913;stroke-miterlimit:10;" d="M430.6,704.3c0,0,0.3-13.6,8.7-14.8
	c0,0,6.4-1.4,9.5,2.8"/>
<path id="XMLID_61_" style="stroke:#4D4D4D;stroke-width:0.5913;stroke-miterlimit:10;" d="M448.1,678.1"/>
<path id="XMLID_904_" style="fill:#E8D8D7;stroke:#6B2432;stroke-width:0.6385;stroke-miterlimit:10;" d="M124.6,220.9
	c0,0-1,0.1-8.7,13.9c-7.7,13.8-31.6,97.5-33.6,107.6c-2.4,12.3-29.1,62.9-29.5,62.3c0,0,9,8.5,13.5,1.5l41.4-62.7"/>
<path id="XMLID_978_" style="fill:#1A1A1A;stroke:#000000;stroke-width:0.6188;stroke-miterlimit:10;" d="M259.7,421.8
	c-1.5-5.8-6.3-28.1-14-53.8c-5-16.6-7.9-36.8-14.4-45.5l12.8,37l46.7-45.2c0,0-29.3-84-43.7-94.1c-14.4-10.1-16.2-9.9-16.2-9.9
	l-46.3,36.3l-45.9-34.8c0,0-13.3,2.3-19.2,9.6c-6,7.3-38,94.1-38,94.1l43.7,46.9l9.4-34.9c0,0-24.7,84.2-21.4,106.1
	c0.3,1.8,1,5.6,2.1,11c0,0,82.4-18.3,93.3-14.5c10.9,3.8,53.9,6.9,54,6.9C260.7,428.1,260,422.9,259.7,421.8z"/>
<polygon id="XMLID_979_" style="fill:#28121A;stroke:#000000;stroke-width:0.6066;stroke-miterlimit:10;" points="263.8,428.2 
	263.8,428.2 263.8,428.2 "/>
<polygon id="XMLID_981_" style="fill:#28121A;stroke:#000000;stroke-width:0.6066;stroke-miterlimit:10;" points="115.4,435.4 
	115.4,435.4 115.4,435.4 "/>
<polyline id="XMLID_975_" style="fill:#1A1A1A;stroke:#000000;stroke-width:0.6066;stroke-miterlimit:10;" points="285.7,318.3 
	292.4,313.6 288.4,298.9 245.7,336.3 "/>
<polyline id="XMLID_976_" style="fill:#1A1A1A;stroke:#000000;stroke-width:0.6066;stroke-miterlimit:10;" points="127.7,351.7 
	85.6,298.9 79.2,312.6 81.6,315.7 "/>
<line id="XMLID_984_" style="fill:#9F9F9F;stroke:#000000;stroke-width:0.6066;stroke-miterlimit:10;" x1="134.7" y1="322.9" x2="128.2" y2="303.8"/>
<line id="XMLID_989_" style="fill:#9F9F9F;stroke:#000000;stroke-width:0.6066;stroke-miterlimit:10;" x1="232.6" y1="316.7" x2="235.3" y2="307.8"/>
<path id="XMLID_998_" style="stroke:#000000;stroke-width:1.101;stroke-miterlimit:10;" d="M267.3,749.2c-1.9-2.1-22-7-35.5-11.9
	c-13.5-4.9-17.5-5.4-17.5-5.4l-14.8,5.6c-0.5,1.8-1.1,3.8-1.6,5.9c-1.5,6.7,0,8.1,21.8,10.7c21.8,2.6,41.2,1.7,47.8,1.4
	C274.1,755.1,269.2,751.3,267.3,749.2z"/>
<polygon id="XMLID_999_" style="fill:#28121A;stroke:#000000;stroke-width:1.101;stroke-miterlimit:10;" points="199.5,737.4 
	199.5,737.4 199.5,737.4 "/>
<path id="XMLID_1047_" style="stroke:#000000;stroke-width:1.101;stroke-miterlimit:10;" d="M180.3,739.9c0,0,4.6,7.8-2.7,18.4
	c0,0-16.2,19.8-21.8,19.5c-5.6-0.3-7.6-6.4-6.9-13.3c0.7-6.9,15.2-27,17.3-25.2C168.3,741,180.3,739.9,180.3,739.9z"/>
<g id="XMLID_903_">
	<path id="XMLID_1150_" style="fill:#FFC073;stroke:#6B2432;stroke-width:0.4456;stroke-miterlimit:10;" d="M33.7,398.7l20.7,39.4
		c0,0,14.6,2.2,22.4-9.6l-11.6-43.3"/>
	<path id="XMLID_1148_" style="fill:#FFC073;stroke:#6B2432;stroke-width:0.4456;stroke-miterlimit:10;" d="M65.1,385.2
		c0.7,1.7-5.8,6.1-14.5,9.9s-16.3,5.3-17,3.6s5.8-6.1,14.5-9.9C56.9,385.1,64.5,383.5,65.1,385.2z"/>
	<path id="XMLID_1151_" style="fill:#E8D8D7;stroke:#FFC073;stroke-width:0.4456;stroke-miterlimit:10;" d="M52,391
		c0.2,0.4-1.3,1.5-3.2,2.3c-1.9,0.8-3.7,1.2-3.8,0.7c-0.2-0.4,1.3-1.5,3.2-2.3C50.2,390.9,51.9,390.5,52,391z"/>
	<path id="XMLID_1153_" style="fill:#E3E5E1;stroke:#6B2432;stroke-width:0.4559;stroke-miterlimit:10;" d="M50.6,392l-4.4-11.3
		l-4,1.7l4.4,11.3C46.6,393.7,48.5,394.1,50.6,392z"/>
	<path id="XMLID_1152_" style="fill:#E3E5E1;stroke:#6B2432;stroke-width:0.3342;stroke-miterlimit:10;" d="M46.1,380.5
		c0.1,0.3-0.6,1-1.7,1.5s-2.1,0.6-2.2,0.2c-0.1-0.3,0.6-1,1.7-1.5C44.9,380.2,45.9,380.1,46.1,380.5z"/>
	<path id="XMLID_1154_" d="M68.2,414c0.3,0.8-0.1,1.7-0.8,2c-0.7,0.3-1.6-0.1-1.9-0.8s0.1-1.7,0.8-2C67,412.9,67.9,413.2,68.2,414z"
		/>
	<path id="XMLID_1002_" d="M64.2,418.9c0.3,0.8-0.1,1.7-0.8,2c-0.7,0.3-1.6-0.1-1.9-0.8s0.1-1.7,0.8-2
		C63,417.7,63.9,418.1,64.2,418.9z"/>
	<path id="XMLID_1156_" d="M67.7,420.9c0.4,1-0.1,2.1-1,2.5c-0.9,0.4-2-0.1-2.4-1c-0.4-1,0.1-2.1,1-2.5
		C66.3,419.5,67.3,419.9,67.7,420.9z"/>
	<path id="XMLID_1157_" d="M72.7,424.4c0.4,1-0.1,2.1-1,2.5s-2-0.1-2.4-1c-0.4-1,0.1-2.1,1-2.5S72.3,423.4,72.7,424.4z"/>
	<path id="XMLID_1158_" d="M69.2,430c0.4,1-0.1,2.1-1,2.5c-0.9,0.4-2-0.1-2.4-1c-0.4-1,0.1-2.1,1-2.5
		C67.7,428.6,68.8,429.1,69.2,430z"/>
	<path id="XMLID_1159_" d="M61.7,431c0.4,1-0.1,2.1-1,2.5c-0.9,0.4-2-0.1-2.4-1c-0.4-1,0.1-2.1,1-2.5C60.2,429.6,61.3,430,61.7,431z
		"/>
	<path id="XMLID_1160_" d="M56.9,428.9c0.4,1-0.1,2.1-1,2.5c-0.9,0.4-2-0.1-2.4-1c-0.4-1,0.1-2.1,1-2.5
		C55.4,427.5,56.5,427.9,56.9,428.9z"/>
	<path id="XMLID_1161_" d="M62.8,426.3c0.2,0.5,0,1-0.5,1.2s-1,0-1.2-0.5c-0.2-0.5,0-1,0.5-1.2C62.1,425.6,62.7,425.8,62.8,426.3z"
		/>
	<path id="XMLID_1162_" d="M67,426.7c0.2,0.5,0,1-0.5,1.2c-0.5,0.2-1,0-1.2-0.5c-0.2-0.5,0-1,0.5-1.2C66.2,426,66.8,426.3,67,426.7z
		"/>
	<path id="XMLID_1163_" d="M53,419.3c0.2,0.6,0,1.4-0.6,1.6c-0.6,0.3-1.3,0-1.5-0.7s0-1.4,0.6-1.6C52,418.4,52.7,418.7,53,419.3z"/>
	<path id="XMLID_905_" style="fill:#4B2702;" d="M68.7,398.7l-24.4,20.4C44.4,419.1,47,405.3,68.7,398.7z"/>
	<polyline id="XMLID_1003_" style="fill:#FFC073;stroke:#6B2432;stroke-width:0.4456;stroke-miterlimit:10;" points="51.6,394.7 
		62.6,423.3 59.2,425.2 47.9,396.2 	"/>
	<path id="XMLID_1015_" style="fill:#FFC073;stroke:#6B2432;stroke-width:0.4456;stroke-miterlimit:10;" d="M59.2,425.2
		c0,0,2.3,0.2,3.4-2"/>
	<path id="XMLID_956_" style="fill:#AB7137;" d="M44.4,419.1c0,0,22-6.5,24.4-20.4"/>
	<path id="XMLID_1039_" style="opacity:0.57;fill:#E3E5E1;" d="M44.1,417L35.7,401c0,0,14.1,0.8,29.5-12.5l2.7,10.9
		C67.9,399.4,61,412.4,44.1,417z"/>
</g>
<path id="XMLID_995_" style="fill:#E8D8D7;stroke:#6B2432;stroke-width:0.5596;stroke-miterlimit:10;" d="M58.3,409.4"/>
<path id="XMLID_1001_" style="fill:#E8D8D7;stroke:#6B2432;stroke-width:0.5596;stroke-miterlimit:10;" d="M41.2,414.2
	c0,0-3.1-3.4-1.2-4c1.9-0.6,4.2,2.5,4.2,2.5S42.2,415.2,41.2,414.2z"/>
<path id="XMLID_1164_" style="fill:#E8D8D7;stroke:#6B2432;stroke-width:0.4795;stroke-miterlimit:10;" d="M39,413.3
	c-0.6,0.4-0.9,1.2-0.8,2.1c0.3,2.7,4.8,7.4,5.6,9.6c1.6,4.7,8.8,2.3,8.8-3.2c0-0.4,0.3-1.1,0.3-1.1c0-0.8,0.1-1.2-0.3-4.4
	c-0.2-1.5-1-2.1-1.1-2.4c-0.2-0.6-1.2-0.5-2.1-0.8C47.2,412.3,41.5,411.6,39,413.3z"/>
<path id="XMLID_84_" style="fill:#E8D8D7;stroke:#6B2432;stroke-width:0.5596;stroke-miterlimit:10;" d="M58,418.6"/>
<path id="XMLID_1021_" style="fill:#E8D8D7;stroke:#6B2432;stroke-width:0.3439;stroke-miterlimit:10;" d="M47.7,421.8"/>
<path id="XMLID_1016_" style="fill:#E8D8D7;stroke:#6B2432;stroke-width:0.3439;stroke-miterlimit:10;" d="M52.3,419.5"/>
<path id="XMLID_1019_" style="fill:#E8D8D7;stroke:#6B2432;stroke-width:0.3439;stroke-miterlimit:10;" d="M46.6,418.9"/>
<path id="XMLID_1017_" style="fill:#E8D8D7;stroke:#6B2432;stroke-width:0.3439;stroke-miterlimit:10;" d="M52.3,418"/>
<path id="XMLID_996_" style="fill:#E8D8D7;stroke:#6B2432;stroke-width:0.4056;stroke-miterlimit:10;" d="M51,413.6"/>
<path id="XMLID_1022_" style="fill:#E8D8D7;stroke:#6B2432;stroke-width:0.3439;stroke-miterlimit:10;" d="M44.7,415.7"/>
<path id="XMLID_1000_" style="fill:#E8D8D7;stroke:#6B2432;stroke-width:0.3439;stroke-miterlimit:10;" d="M51.9,415.7"/>
<path id="XMLID_1027_" style="fill:#E8D8D7;stroke:#6B2432;stroke-width:0.6208;stroke-miterlimit:10;" d="M252.2,367.1
	c0,0-16.9,17-14,21.8c2.8,4.9,14.5,8.4,17.4,8.9c2.9,0.5,3.7,0.8,3.1-3.4c-0.7-4.1-0.9-5.8-0.9-5.8l0.5-1.5l-0.1-1.3"/>
<path id="XMLID_1018_" style="fill:#E8D8D7;stroke:#6B2432;stroke-width:0.6385;stroke-miterlimit:10;" d="M249,368.1"/>
<path id="XMLID_1020_" style="fill:#433A3D;stroke:#6B2432;stroke-width:0.4456;stroke-miterlimit:10;" d="M292.3,427.6
	c14.3,15.1,24.5,36.1,19.8,56.3c-3.7,16.1-15.9,28.7-27.7,40.4"/>
<polygon id="XMLID_353_" style="fill:#433A3D;stroke:#6B2432;stroke-width:0.4456;stroke-miterlimit:10;" points="257.3,465.4 
	290.8,428.2 283.2,513.7 "/>
<line id="XMLID_350_" style="fill:none;stroke:#14090D;stroke-width:1.2625;stroke-miterlimit:10;" x1="281.3" y1="461.7" x2="292.4" y2="450.6"/>
<path id="XMLID_972_" style="fill:none;stroke:#14090D;stroke-width:3.4391;stroke-miterlimit:10;" d="M237.9,385
	c-15.9,16.2-6.3,56.5,9.6,80.8c9.9-6.7,23.9-22.4,33.8-29.1"/>
<path id="XMLID_352_" style="fill:#14090D;stroke:#6B2432;stroke-width:0.4456;stroke-miterlimit:10;" d="M256.4,462.3
	c8-13.4,19.1-24.9,32.2-33.3"/>
<path id="XMLID_973_" style="stroke:#6B2432;stroke-width:0.4456;stroke-miterlimit:10;" d="M256.2,465.4
	c7.7,14.8,15.4,29.6,23.2,44.4c2.5,4.7,5,10.2,3.2,15.3c-2.2,5.8-9.1,8.1-15.2,9.6c-5.7,1.4-11.9,2.7-17.2,0.4
	c-7.6-3.3-10.4-12.6-11.4-20.8c-2-16.2-0.5-32.8,4.3-48.4"/>
<path id="XMLID_1024_" style="fill:none;stroke:#E79C3B;stroke-width:1.2037;stroke-miterlimit:10;" d="M253,474.4
	c-3.3,1.4-5.7,4.9-5.4,8.5c0.4,3.6,3.8,6.7,7.4,6.3c3.6-0.4,6.3-4.7,4.8-7.9"/>
<linearGradient id="XMLID_68_" gradientUnits="userSpaceOnUse" x1="247.7617" y1="526.3153" x2="285.8574" y2="526.3153">
	<stop  offset="0" style="stop-color:#DECEB1"/>
	<stop  offset="0.5" style="stop-color:#D4BB88"/>
	<stop  offset="1" style="stop-color:#CDAE80"/>
</linearGradient>
<path id="XMLID_1025_" style="fill:url(#XMLID_68_);stroke:#E79C3B;stroke-width:0.4456;stroke-miterlimit:10;" d="M251.3,484.7
	c0.3,3.2-0.9,6.4-2,9.5c-1.1,3.1-2,6.4-1.2,9.6c0.8,3.2,4,5.9,7.2,5.1c2.5-0.7,4-3.3,4.2-5.9c0.2-2.5-0.7-5-1.5-7.4
	c-5.5,16.2,3.1,35.9,18.7,42.9c-1.5-16.4-10.1-32-23-42.1c3.7,12.1,7.3,24.2,11,36.4c2.4,7.8,5.3,16.4,12.5,20.2
	c3.4,1.9,8.2,3.1,8.8,7c0.6,4.1-4.2,6.8-8.2,8.1c-8.9-8.6-10.4-22-11.9-34.2c-1.5-12.2-4.4-25.8-14.6-32.7c0.9,2.2,1.7,4.4,2.6,6.6"
	/>
<g id="XMLID_1257_" style="opacity:0;">
	<polygon id="XMLID_1261_" style="fill:#D2D2D2;" points="303.1,383 270.2,383 270.2,435.9 280.8,397.5 	"/>
	<polygon id="XMLID_1259_" style="fill:#D2D2D2;" points="228.8,378 261.2,378 261.2,324.3 250.9,363.1 	"/>
	<polyline id="XMLID_1258_" style="fill:none;stroke:#B8B8B8;stroke-miterlimit:10;" points="291.2,375.5 269.7,375.5 269.7,375.9 
		269.7,354 	"/>
	<polyline id="XMLID_1260_" style="fill:none;stroke:#B8B8B8;stroke-miterlimit:10;" points="239.2,383.5 261.9,383.5 260.7,383.6 
		260.7,406 	"/>
</g>
<path id="XMLID_317_" style="fill:none;stroke:#14090D;stroke-width:3.4391;stroke-miterlimit:10;" d="M258.5,390.6
	c14.3,11.4,27.9,24.8,27.4,43.1"/>
</svg>
